<svg fill="#000000" xmlns="http://www.w3.org/2000/svg"  viewBox="0 0 63 63" width="60" height="60"><path d="M 32 10 C 19.85 10 10 19.85 10 32 C 10 44.15 19.85 54 32 54 C 44.15 54 54 44.15 54 32 C 54 19.85 44.15 10 32 10 z M 32 14 C 36.439229 14 40.49619 15.615207 43.634766 18.279297 C 42.217967 18.658237 41.263672 20.015499 41.263672 21.480469 C 41.263672 23.027469 42.158422 24.333859 43.107422 25.880859 C 43.823422 27.128859 44.654297 28.733781 44.654297 31.050781 C 44.654297 32.658781 44.179516 34.675328 43.228516 37.111328 L 41.355469 43.367188 L 34.578125 23.207031 C 35.706125 23.146031 36.724609 23.029297 36.724609 23.029297 C 37.734609 22.908297 37.618469 21.426422 36.605469 21.482422 C 36.605469 21.482422 33.567422 21.720703 31.607422 21.720703 C 29.767422 21.720703 26.671875 21.482422 26.671875 21.482422 C 25.662875 21.422422 25.539734 22.969297 26.552734 23.029297 C 26.552734 23.029297 27.508484 23.147125 28.521484 23.203125 L 31.439453 31.212891 L 27.337891 43.523438 L 20.509766 23.207031 C 21.638766 23.146031 22.654297 23.029297 22.654297 23.029297 C 23.664297 22.908297 23.548156 21.426422 22.535156 21.482422 C 22.535156 21.482422 19.497109 21.720703 17.537109 21.720703 C 17.449376 21.720703 17.34136 21.71874 17.238281 21.716797 C 20.491328 17.055826 25.885073 14 32 14 z M 48.580078 24.980469 C 49.494609 27.137619 50 29.509465 50 32 C 50 38.31436 46.742224 43.859502 41.822266 47.072266 L 47.15625 31.650391 C 48.216758 28.993665 48.574429 26.869161 48.580078 24.980469 z M 15.255859 25.425781 L 23.439453 47.837891 C 17.817932 44.792884 14 38.842202 14 32 C 14 29.67706 14.454583 27.464383 15.255859 25.425781 z M 32.330078 33.636719 L 37.935547 48.978516 C 36.074827 49.629205 34.082746 50 32 50 C 30.245696 50 28.55431 49.737535 26.951172 49.269531 L 32.330078 33.636719 z"/></svg> 