<?xml version="1.0" standalone="no"?>
<!DOCTYPE svg PUBLIC "-//W3C//DTD SVG 20010904//EN"
 "http://www.w3.org/TR/2001/REC-SVG-20010904/DTD/svg10.dtd">
<svg version="1.0" xmlns="http://www.w3.org/2000/svg"
 width="795.000000pt" height="431.000000pt" viewBox="0 0 795.000000 431.000000"
 preserveAspectRatio="xMidYMid meet">

<g transform="translate(0.000000,431.000000) scale(0.100000,-0.100000)"
fill="#000000" stroke="none">
<path d="M5480 3949 c-362 -42 -700 -250 -903 -555 -142 -214 -197 -404 -197
-685 0 -212 39 -388 122 -554 172 -342 476 -574 861 -657 133 -28 371 -30 492
-4 375 82 705 331 861 651 24 50 44 96 44 101 0 6 -46 28 -102 48 -455 167
-967 393 -941 415 4 5 228 140 496 301 376 226 486 297 482 309 -25 68 -112
188 -200 277 -210 212 -443 323 -739 353 -123 12 -168 12 -276 0z m387 -44
c187 -30 333 -104 528 -267 128 -106 217 -209 245 -282 9 -24 5 -29 -63 -74
-40 -27 -243 -155 -452 -284 -508 -314 -485 -299 -478 -311 14 -22 303 -152
663 -297 443 -178 406 -148 340 -285 -72 -149 -193 -283 -355 -390 -376 -249
-796 -279 -1190 -86 -148 73 -262 156 -380 275 -204 206 -300 436 -312 747
-12 295 45 518 185 729 165 248 425 426 728 499 174 42 380 52 541 26z"/>
<path d="M5443 3865 c-117 -18 -222 -53 -346 -117 -303 -155 -520 -420 -604
-735 -24 -88 -26 -117 -27 -283 -1 -204 11 -287 65 -433 88 -243 291 -464 559
-610 154 -83 362 -137 530 -137 301 0 641 146 844 361 78 83 151 209 158 272
l3 29 -355 142 c-195 78 -389 157 -430 175 -136 61 -300 142 -300 150 0 5 21
21 48 38 26 16 261 164 522 327 261 164 474 303 472 309 -10 36 -89 135 -172
217 -147 146 -319 236 -535 281 -122 26 -316 32 -432 14z m617 -1570 c195 -75
361 -141 367 -147 42 -34 -20 -139 -132 -224 -77 -57 -111 -68 -141 -44 -13
12 -3 26 82 111 l98 98 -69 32 c-39 18 -187 80 -330 139 l-260 106 -3 38 c-3
33 -1 38 15 34 10 -3 178 -67 373 -143z"/>
<path d="M2280 3939 c-341 -42 -651 -229 -852 -513 -88 -126 -157 -280 -199
-451 -26 -105 -37 -367 -19 -486 50 -344 290 -681 634 -889 176 -106 333 -144
591 -144 137 0 190 5 273 22 189 41 328 103 472 210 284 212 457 522 494 888
l5 51 -202 6 c-111 4 -392 7 -624 7 l-423 0 -16 25 c-9 14 -19 54 -22 90 -5
63 -3 68 32 120 55 79 137 135 199 135 47 0 129 -32 193 -76 l66 -45 316 197
c175 108 321 200 325 204 10 9 -21 74 -66 140 -90 132 -274 283 -478 394 -159
86 -279 116 -484 121 -77 2 -174 0 -215 -6z m295 -40 c203 -25 388 -92 552
-202 111 -74 242 -200 310 -299 l47 -68 -24 -25 c-36 -39 -177 -132 -355 -235
-88 -51 -172 -101 -187 -111 -32 -23 -51 -24 -69 -3 -22 26 -104 63 -163 72
-136 22 -245 -37 -310 -165 -18 -36 -22 -165 -7 -206 23 -60 -16 -57 657 -57
l614 0 0 -49 c0 -68 -26 -198 -55 -276 -109 -289 -358 -554 -648 -690 -301
-141 -715 -136 -1022 14 -402 197 -656 581 -690 1048 -29 385 164 793 489
1035 230 172 558 254 861 217z"/>
<path d="M2283 3850 c-281 -32 -477 -131 -680 -344 -193 -201 -292 -402 -323
-656 -67 -550 260 -1081 773 -1256 229 -78 535 -78 765 0 367 125 691 487 761
851 7 33 14 70 17 83 l4 22 -606 0 -606 0 -28 28 c-35 36 -50 87 -50 178 0
111 52 207 151 280 47 34 56 37 138 42 95 5 166 -10 252 -53 l46 -24 49 33
c27 18 114 70 194 116 130 74 280 174 280 187 0 11 -93 123 -146 177 -210 210
-493 330 -808 341 -61 2 -144 0 -183 -5z m1125 -1511 c29 -10 30 -12 20 -47
-60 -220 -273 -450 -530 -575 -123 -59 -221 -87 -340 -94 l-98 -6 0 31 c0 30
1 31 78 48 411 90 728 328 821 617 7 20 14 37 15 37 2 0 17 -5 34 -11z"/>
<path d="M3950 2610 l0 -1280 90 0 90 0 0 1280 0 1280 -90 0 -90 0 0 -1280z"/>
<path d="M950 650 l0 -370 355 0 355 0 0 65 0 65 -169 0 c-188 0 -228 5 -234
29 -3 9 -5 4 -6 -11 l-1 -28 200 0 200 0 0 -55 0 -55 -345 0 -345 0 0 355 0
355 345 0 345 0 0 -150 0 -150 -202 -2 -203 -3 -3 -57 -3 -58 76 0 75 0 0 -30
c0 -30 -1 -30 -54 -30 -64 0 -86 -7 -86 -27 0 -12 2 -12 16 1 10 11 34 16 75
16 l59 0 0 40 0 39 -72 3 -73 3 0 45 0 45 203 3 202 2 0 165 0 165 -355 0
-355 0 0 -370z"/>
<path d="M1823 1013 l-133 -4 0 -359 0 -360 253 2 252 3 -247 2 -248 3 0 351
0 351 238 -4 237 -3 55 -30 c125 -69 158 -211 72 -307 -37 -41 -120 -88 -157
-88 -11 0 -27 -5 -35 -10 -12 -8 10 -34 110 -135 69 -69 129 -125 135 -125 5
0 -46 56 -113 123 l-123 124 59 21 c122 45 182 114 182 211 0 63 -13 97 -53
139 -63 66 -181 105 -302 100 -27 -1 -110 -4 -182 -5z"/>
<path d="M4338 828 c-2 -106 -6 -199 -9 -207 -2 -7 2 -16 9 -18 9 -4 12 40 12
196 l0 201 120 0 c73 0 120 4 120 10 0 6 -48 10 -124 10 l-124 0 -4 -192z"/>
<path d="M5710 650 l0 -370 355 0 355 0 0 65 0 65 -167 0 c-93 0 -185 3 -205
6 -25 5 -38 3 -38 -5 0 -8 58 -11 200 -11 l200 0 0 -55 0 -55 -345 0 -345 0 0
355 0 355 345 0 345 0 0 -150 0 -150 -202 -2 -203 -3 -3 -57 -3 -58 76 0 75 0
0 -30 c0 -30 -1 -30 -54 -30 -64 0 -86 -7 -86 -27 0 -12 2 -12 16 1 10 11 34
16 75 16 l59 0 0 40 0 39 -72 3 -73 3 0 45 0 45 203 3 202 2 0 165 0 165 -355
0 -355 0 0 -370z"/>
<path d="M493 1000 c-42 -9 -118 -43 -127 -58 -3 -5 16 2 42 15 95 47 216 49
317 4 24 -11 68 -43 96 -71 49 -49 50 -52 34 -70 -10 -11 -48 -37 -86 -60 -56
-33 -73 -39 -88 -30 -30 15 -38 12 -13 -6 12 -8 28 -14 35 -12 29 7 177 104
177 116 0 26 -94 113 -156 143 -69 34 -156 45 -231 29z"/>
<path d="M5265 997 c-72 -24 -120 -54 -168 -106 -26 -27 -47 -53 -47 -57 0 -3
21 17 46 45 85 94 232 141 351 112 94 -23 221 -132 194 -165 -6 -7 -70 -49
-141 -92 -71 -44 -130 -82 -130 -85 0 -7 164 -80 252 -114 44 -16 46 -18 37
-44 -23 -64 -105 -134 -197 -167 -21 -7 -29 -13 -18 -14 29 0 130 58 169 98
20 21 45 55 56 77 l19 39 -97 37 c-116 45 -189 77 -195 87 -3 5 58 45 134 91
l139 83 -13 27 c-23 43 -86 100 -144 128 -65 32 -183 41 -247 20z"/>
<path d="M6450 1003 c0 -5 59 -8 130 -8 72 0 130 3 130 8 0 4 -58 7 -130 7
-71 0 -130 -3 -130 -7z"/>
<path d="M7000 693 c0 -175 -3 -335 -6 -356 l-7 -37 -268 0 -269 0 -3 318 -2
317 -3 -322 -2 -323 208 0 c114 0 305 -3 425 -7 l217 -6 0 366 0 367 -145 0
-145 0 0 -317z m280 -48 l0 -355 -135 0 -135 0 0 355 0 355 135 0 135 0 0
-355z"/>
<path d="M7020 645 l0 -345 125 0 125 0 0 163 c0 90 -3 246 -7 345 l-6 182
-119 0 -118 0 0 -345z m140 315 c0 -5 -15 -10 -32 -10 -18 0 -38 -4 -45 -8 -7
-4 -14 -75 -21 -202 l-9 -195 -1 213 -2 212 55 0 c30 0 55 -4 55 -10z"/>
<path d="M7469 990 c-42 -22 -86 -71 -106 -117 -15 -36 -17 -111 -4 -131 5 -8
6 7 3 37 -8 83 37 165 110 202 32 17 54 20 97 16 31 -2 65 -7 76 -11 11 -3 7
0 -10 8 -42 21 -123 19 -166 -4z"/>
<path d="M2953 818 l-182 -181 -186 178 -185 177 0 -351 0 -351 370 0 370 0 0
355 c0 195 -1 355 -2 355 -2 0 -85 -82 -185 -182z m177 -183 l0 -335 -360 0
-360 0 0 331 0 330 28 -20 c15 -11 92 -85 172 -165 80 -80 149 -146 155 -146
6 0 87 76 180 170 93 94 173 170 177 170 5 0 8 -151 8 -335z"/>
<path d="M2420 627 l0 -317 350 0 350 0 0 148 c0 82 -3 224 -7 316 l-6 168
-161 -161 c-100 -99 -169 -161 -181 -161 -12 0 -82 62 -182 162 l-163 163 0
-318z m640 -157 l0 -110 -92 0 c-64 0 -88 3 -78 10 8 5 45 10 83 10 l67 0 0
63 c0 61 9 137 16 137 2 0 4 -49 4 -110z"/>
<path d="M980 650 l0 -340 330 0 330 0 0 40 0 40 -199 0 c-219 0 -211 -2 -211
63 0 72 5 77 81 77 52 0 69 3 69 14 0 14 -49 26 -112 26 l-38 0 0 70 0 70 205
0 205 0 0 140 0 140 -330 0 -330 0 0 -340z m330 311 c0 -5 -65 -12 -145 -16
l-145 -7 -1 -92 c-2 -154 -17 -165 -18 -13 l-1 137 155 0 c85 0 155 -4 155 -9z"/>
<path d="M1710 652 c0 -259 3 -334 13 -337 7 -3 142 -4 300 -3 l288 3 -111
118 c-115 121 -128 147 -73 147 65 1 174 76 199 137 19 44 17 83 -5 136 -21
48 -52 75 -128 110 -45 21 -62 22 -265 22 l-218 0 0 -333z m600 109 c0 -21
-22 -67 -43 -90 -22 -24 -106 -65 -114 -57 -9 9 9 26 40 40 36 15 97 79 97
101 0 8 5 15 10 15 6 0 10 -4 10 -9z m-130 -346 l74 -75 -87 0 c-56 0 -86 4
-82 10 3 6 32 10 63 10 l56 0 -64 65 c-35 36 -58 65 -49 65 8 0 48 -34 89 -75z"/>
<path d="M3576 968 c-41 -66 -386 -671 -383 -674 1 -2 70 112 152 254 82 141
171 295 198 340 l49 84 24 -40 c13 -21 93 -171 178 -333 l155 -294 -97 -6 -97
-5 106 -2 106 -2 -110 212 c-129 250 -257 488 -263 488 -2 0 -10 -10 -18 -22z"/>
<path d="M3990 985 c0 -6 63 -80 141 -165 164 -181 189 -207 189 -198 0 4 -66
81 -146 170 -181 202 -184 205 -184 193z"/>
<path d="M4360 780 c0 -124 -4 -210 -9 -210 -8 0 -180 183 -319 340 l-31 35
-1 -115 c0 -63 3 -206 7 -317 l6 -203 285 0 285 0 -6 248 c-4 136 -7 289 -7
340 l0 92 -105 0 -105 0 0 -210z m170 -310 l0 -120 -100 0 c-124 0 -134 18
-12 22 l87 3 2 45 c5 79 14 170 19 170 2 0 4 -54 4 -120z"/>
<path d="M5273 976 c-96 -31 -169 -92 -215 -179 -20 -36 -23 -57 -23 -142 0
-85 3 -106 23 -143 77 -144 237 -218 386 -178 89 25 189 104 198 159 2 15 -21
28 -127 71 -129 52 -175 73 -175 81 0 3 147 97 268 171 l33 20 -41 47 c-22 25
-64 57 -93 71 -65 32 -173 42 -234 22z m214 -443 c114 -42 123 -54 72 -97 -50
-43 -68 -32 -23 15 l25 26 -88 38 c-85 36 -118 55 -97 55 5 0 55 -16 111 -37z"/>
<path d="M5730 650 l0 -340 336 0 335 0 -3 38 -3 37 -195 3 c-140 2 -196 6
-202 15 -9 14 -11 89 -2 111 5 12 21 16 75 16 52 0 69 3 69 14 0 14 -49 26
-112 26 -36 0 -37 1 -43 43 -4 24 -5 55 -3 68 l3 24 208 3 207 2 0 140 0 140
-335 0 -335 0 0 -340z m340 311 c0 -5 -65 -12 -145 -16 l-145 -7 -1 -67 c-1
-36 -4 -91 -9 -121 -6 -43 -7 -26 -9 83 l-1 137 155 0 c85 0 155 -4 155 -9z"/>
<path d="M7515 981 c-69 -17 -116 -67 -136 -145 -18 -72 -1 -116 79 -198 l66
-69 -68 -68 c-63 -64 -68 -71 -59 -97 5 -15 26 -41 47 -58 32 -26 47 -31 106
-34 49 -3 78 0 101 12 18 9 34 14 37 12 13 -13 -66 -37 -123 -37 -74 0 -132
25 -164 70 -34 47 -27 69 41 138 l62 62 -54 58 c-29 32 -58 63 -63 68 -33 34
21 -41 57 -81 l45 -49 -67 -68 -67 -67 20 -37 c30 -55 82 -91 147 -103 74 -14
126 0 176 45 56 50 86 116 78 173 -7 54 -42 116 -88 157 l-33 30 26 -30 c71
-83 97 -150 80 -212 -12 -44 -49 -108 -58 -100 -3 3 5 20 18 38 31 44 37 124
13 174 -10 21 -45 67 -77 102 l-60 64 67 68 c36 38 66 75 66 83 0 16 -54 70
-85 86 -30 15 -96 21 -130 13z m125 -41 c47 -24 65 -52 51 -79 -11 -19 -40
-35 -49 -26 -3 3 2 13 11 23 10 10 17 23 17 28 0 19 -77 54 -119 54 -26 0 -40
4 -36 10 10 17 84 11 125 -10z m84 -454 c-10 -67 -33 -105 -81 -133 -32 -19
-47 -23 -55 -15 -8 8 -6 13 8 17 37 12 49 22 79 64 25 36 30 51 28 94 -2 47
-1 50 12 33 10 -13 13 -32 9 -60z"/>
<path d="M462 966 c-53 -17 -118 -67 -159 -120 -86 -113 -83 -288 8 -405 10
-13 17 -27 14 -31 -2 -4 8 -18 23 -31 25 -22 25 -22 8 -1 -26 30 -14 28 35 -7
79 -58 228 -67 324 -21 89 43 185 165 185 237 0 22 -1 23 -177 25 l-178 3 -3
44 c-3 36 1 48 24 72 30 31 59 36 108 18 28 -10 37 -7 93 26 89 53 91 56 49
102 -55 61 -135 96 -231 100 -50 2 -96 -2 -123 -11z m379 -465 c-40 -78 -131
-143 -218 -157 -57 -9 -57 11 -1 27 97 26 184 91 209 156 5 13 13 21 19 18 6
-4 2 -21 -9 -44z"/>
<path d="M6470 827 c0 -85 -3 -236 -7 -335 l-6 -182 261 0 262 0 0 33 c0 17
-3 56 -6 85 l-7 52 -133 0 -134 0 0 128 c0 71 -3 184 -7 250 l-6 122 -109 0
-108 0 0 -153z m40 -387 l0 -80 30 -6 c43 -9 37 -24 -10 -24 l-40 0 0 95 c0
57 4 95 10 95 6 0 10 -33 10 -80z"/>
<path d="M7670 976 c0 -2 8 -10 18 -17 15 -13 16 -12 3 4 -13 16 -21 21 -21
13z"/>
<path d="M3412 636 c-100 -172 -182 -316 -182 -320 0 -3 158 -6 350 -6 l351 0
-88 167 c-48 93 -124 237 -169 320 l-81 153 -181 -314z m422 -200 c26 -45 46
-88 46 -95 0 -7 -27 -11 -82 -10 -86 0 -86 17 0 18 23 1 42 6 42 11 0 6 -13
37 -30 70 -27 54 -37 90 -26 90 3 0 25 -38 50 -84z"/>
<path d="M7722 923 c35 -41 31 -56 -36 -122 -63 -63 -71 -83 -38 -96 15 -5 15
-4 -1 12 -16 17 -14 20 50 85 l68 68 -19 35 c-11 19 -24 35 -29 35 -6 0 -3 -8
5 -17z"/>
<path d="M318 903 c-24 -26 -73 -99 -52 -78 18 18 85 105 82 105 -3 0 -16 -12
-30 -27z"/>
<path d="M6712 678 l-2 -188 143 2 142 2 -135 6 -135 5 -5 180 -6 180 -2 -187z"/>
<path d="M5035 809 c-4 -6 -5 -12 -2 -15 2 -3 7 2 10 11 7 17 1 20 -8 4z"/>
<path d="M580 724 c-26 -22 -31 -33 -28 -63 l3 -36 188 -5 c103 -3 187 -2 187
3 0 4 -69 7 -154 7 -183 0 -216 5 -216 32 0 32 20 59 53 73 18 8 24 14 15 15
-9 0 -31 -12 -48 -26z"/>
<path d="M5012 725 c0 -16 2 -22 5 -12 2 9 2 23 0 30 -3 6 -5 -1 -5 -18z"/>
<path d="M222 705 c0 -16 2 -22 5 -12 2 9 2 23 0 30 -3 6 -5 -1 -5 -18z"/>
<path d="M5006 626 c3 -33 10 -69 15 -80 10 -23 5 14 -11 94 -9 42 -9 41 -4
-14z"/>
<path d="M221 600 c-1 -40 46 -148 75 -170 18 -14 18 -14 3 5 -29 35 -53 88
-65 145 -11 48 -12 50 -13 20z"/>
<path d="M912 575 c0 -16 2 -22 5 -12 2 9 2 23 0 30 -3 6 -5 -1 -5 -18z"/>
<path d="M896 525 c-9 -26 -7 -32 5 -12 6 10 9 21 6 23 -2 3 -7 -2 -11 -11z"/>
<path d="M5030 514 c0 -21 79 -120 117 -147 45 -31 105 -57 130 -57 10 0 -7
11 -38 24 -71 29 -144 88 -180 146 -16 25 -29 40 -29 34z"/>
<path d="M850 443 c-41 -55 -112 -106 -179 -128 -38 -13 -40 -14 -11 -10 72
11 181 90 216 158 21 39 14 34 -26 -20z"/>
<path d="M385 350 c15 -24 95 -51 162 -55 67 -4 67 -4 13 4 -66 9 -126 28
-159 48 -14 9 -21 10 -16 3z"/>
<path d="M5328 303 c17 -2 47 -2 65 0 17 2 3 4 -33 4 -36 0 -50 -2 -32 -4z"/>
<path d="M3990 290 c0 -6 107 -10 300 -10 193 0 300 4 300 10 0 6 -107 10
-300 10 -193 0 -300 -4 -300 -10z"/>
</g>
</svg>
