<?xml version="1.0" standalone="no"?>
<!DOCTYPE svg PUBLIC "-//W3C//DTD SVG 20010904//EN"
 "http://www.w3.org/TR/2001/REC-SVG-20010904/DTD/svg10.dtd">
<svg version="1.0" xmlns="http://www.w3.org/2000/svg"
 width="273.000000pt" height="262.000000pt" viewBox="0 0 273.000000 262.000000"
 preserveAspectRatio="xMidYMid meet">

<g transform="translate(0.000000,262.000000) scale(0.100000,-0.100000)"
fill="#000000" stroke="none">
<path d="M1260 2549 c-362 -42 -700 -250 -903 -555 -142 -214 -197 -404 -197
-685 0 -212 39 -388 122 -554 172 -342 476 -574 861 -657 133 -28 371 -30 492
-4 375 82 705 331 861 651 24 50 44 96 44 101 0 6 -46 28 -102 48 -455 167
-967 393 -941 415 4 5 228 140 496 301 376 226 486 297 482 309 -25 68 -112
188 -200 277 -210 212 -443 323 -739 353 -123 12 -168 12 -276 0z m387 -44
c187 -30 333 -104 528 -267 128 -106 217 -209 245 -282 9 -24 5 -29 -63 -74
-40 -27 -243 -155 -452 -284 -508 -314 -485 -299 -478 -311 14 -22 303 -152
663 -297 443 -178 406 -148 340 -285 -72 -149 -193 -283 -355 -390 -376 -249
-796 -279 -1190 -86 -148 73 -262 156 -380 275 -204 206 -300 436 -312 747
-12 295 45 518 185 729 165 248 425 426 728 499 174 42 380 52 541 26z"/>
<path d="M1223 2465 c-117 -18 -222 -53 -346 -117 -303 -155 -520 -420 -604
-735 -24 -88 -26 -117 -27 -283 -1 -204 11 -287 65 -433 88 -243 291 -464 559
-610 154 -83 362 -137 530 -137 301 0 641 146 844 361 78 83 151 209 158 272
l3 29 -355 142 c-195 78 -389 157 -430 175 -136 61 -300 142 -300 150 0 5 21
21 48 38 26 16 261 164 522 327 261 164 474 303 472 309 -10 36 -89 135 -172
217 -147 146 -319 236 -535 281 -122 26 -316 32 -432 14z m617 -1570 c195 -75
361 -141 367 -147 42 -34 -20 -139 -132 -224 -77 -57 -111 -68 -141 -44 -13
12 -3 26 82 111 l98 98 -69 32 c-39 18 -187 80 -330 139 l-260 106 -3 38 c-3
33 -1 38 15 34 10 -3 178 -67 373 -143z"/>
</g>
</svg>
