<?xml version="1.0" standalone="no"?>
<!DOCTYPE svg PUBLIC "-//W3C//DTD SVG 20010904//EN"
 "http://www.w3.org/TR/2001/REC-SVG-20010904/DTD/svg10.dtd">
<svg version="1.0" xmlns="http://www.w3.org/2000/svg"
 width="307.000000pt" height="279.000000pt" viewBox="0 0 307.000000 279.000000"
 preserveAspectRatio="xMidYMid meet">

<g transform="translate(0.000000,279.000000) scale(0.100000,-0.100000)"
fill="#000000" stroke="none">
<path d="M1420 2679 c-341 -42 -651 -229 -852 -513 -88 -126 -157 -280 -199
-451 -26 -105 -37 -367 -19 -486 50 -344 290 -681 634 -889 176 -106 333 -144
591 -144 137 0 190 5 273 22 189 41 328 103 472 210 284 212 457 522 494 888
l5 51 -202 6 c-111 4 -392 7 -624 7 l-423 0 -16 25 c-9 14 -19 54 -22 90 -5
63 -3 68 32 120 55 79 137 135 199 135 47 0 129 -32 193 -76 l66 -45 316 197
c175 108 321 200 325 204 10 9 -21 74 -66 140 -90 132 -274 283 -478 394 -159
86 -279 116 -484 121 -77 2 -174 0 -215 -6z m295 -40 c203 -25 388 -92 552
-202 111 -74 242 -200 310 -299 l47 -68 -24 -25 c-36 -39 -177 -132 -355 -235
-88 -51 -172 -101 -187 -111 -32 -23 -51 -24 -69 -3 -22 26 -104 63 -163 72
-136 22 -245 -37 -310 -165 -18 -36 -22 -165 -7 -206 23 -60 -16 -57 657 -57
l614 0 0 -49 c0 -68 -26 -198 -55 -276 -109 -289 -358 -554 -648 -690 -301
-141 -715 -136 -1022 14 -402 197 -656 581 -690 1048 -29 385 164 793 489
1035 230 172 558 254 861 217z"/>
<path d="M1423 2590 c-281 -32 -477 -131 -680 -344 -193 -201 -292 -402 -323
-656 -67 -550 260 -1081 773 -1256 229 -78 535 -78 765 0 367 125 691 487 761
851 7 33 14 70 17 82 l4 23 -606 0 -606 0 -28 28 c-35 36 -50 87 -50 178 0
111 52 207 151 280 47 34 56 37 138 42 95 5 166 -10 252 -53 l46 -24 49 33
c27 18 114 70 194 116 130 74 280 174 280 187 0 11 -93 123 -146 177 -210 210
-493 330 -808 341 -61 2 -144 0 -183 -5z m1125 -1511 c29 -10 30 -12 20 -47
-60 -220 -273 -450 -530 -575 -123 -59 -221 -87 -340 -94 l-98 -6 0 31 c0 30
1 31 78 48 411 90 728 328 821 617 7 20 14 37 15 37 2 0 17 -5 34 -11z"/>
</g>
</svg>
